<?xml version="1.0" encoding="UTF-8"?><svg id="Capa_1" xmlns="http://www.w3.org/2000/svg" width="618.53" height="132.59" viewBox="0 0 618.53 132.59"><path d="M95.63,113.41c.3-1.77-.15-4.08-.03-5.96-2.82.35-3.7-2.1-6.46-2.11-2.92,0-3.53,2.63-6.5,2.07-.52-.53.53-11.02-.14-13.36-.59-2.05-4.95-6.18-6.31-8.69-12.26-22.47,17.39-49.9,38.5-27.48.72.77.79,2.04,1.14,2.37.53.5,1.46,0,1.82.15.07.03,0,.88,1,1,.76,7.28,2.09,13.9-.46,21.04-1.83,5.13-7.47,9.5-8.37,13.63-.84,3.84,1.9,12.18-3.67,11.35-.93-.14-.02-1.92-1.04-2.07-2.13-.03-4.33.22-6.45.06.49-.99,2.12-2.49,2-3,7.72,1.07,3.93-5.3,5.13-9.37.42-1.42,4.17-3.99,5.35-5.65,5.3-7.41,6.6-18.62,1.39-26.34-3.46-5.12-12.28-8.39-18.35-7.62-4.1.52-11.29,5.03-13.39,8.61-5.01,8.56-4.1,19.09,1.85,26.89.96,1.26,3.52,2.83,3.89,4.11.56,1.93-.31,8.95.12,9.38h6c.46,2.36,4.02,2.85,6,3-1.02,2.07-1.8,6-.52,8.02.99,1.58,1.69.08,2.53.52,2.36,1.23,6.54-.99,8.99.96-.52.39-1.03,1.31-1.54,1.46-2.18.64-16.81.35-20,.09-1.67-.14-2.89-.82-4.46-1.04v-.52s11.48-.51,11.48-.51c.62-.17.45-.54.52-.97Z" fill="#ffc200"/><path d="M64.63,18.41v2c-1.81.16-3.81-.25-5.56-.03-1.46.19-1.31.95-1.44,1.02-2.57,1.63-4.6,6.15-7.53,7.97-.15,7.77-7.75,11.89-12.49,17.51-4.03,4.77-4.11,5.78-3.98,12.02.03,1.52-.72,2.9,1.5,2.49,2.34-2.23,8.76-12.21,11.06-12.94,1.2-.38,8.36-8.12,7.5-6.44-.66,1.29-8.85,11.41-10.08,12.86-6.11,7.22-12.6,14.01-19,21-1.55,1.69-3.82,5.99-5.95,7.05-3.44,1.71-1.88-.89-4.98,2.99-7.51,9.39-13.94-7.58-4.54-7.58,3.44,0,3.4,2.41,5.11,2.95,3.94,1.24,2.93-.79,4.34-2.41,2.9-3.32,12.57-12.49,13.04-15.98.54-4-.51-8.77.13-12.87,1.4-2.65,10.24-10.47,10.78-12.24.78-2.57-1.92-4.52-.43-7.42s5.91-1.52,6.43-2.06c.21-.22.27-1.54,1.05-2.43,1.04-1.19,6.88-7.12,7.67-7.35,1.88-.54,5.17-.07,7.37-.13ZM8.13,81.41c-.42.12-.97,1.15-1.5,1.5l2.5,2.5,2.5-1.5v-.99c-.92-1.19-1.94-1.95-3.5-1.5Z" fill="#ff7300"/><path d="M87.63,20.41h10c-1-10.76,1.67-6.48,7.37-8.12,3.61-1.04,5.13-9.22,11.12,1.12,2.91-2.62,2.92-6.36,7.91-4.9,3.61,1.06,4.05,10.99-3.46,8.46-1.77-.6-2.73-2.51-4.43-2.55-1.65.42-.69,4.94-7.04,4.02-3.16-.46-2.74-3.04-3.57-3.93-.34-.37-4.98-.28-5.95.37-1.76,1.17-1.41,11.54.54,11.54h29c.15,0,.45-.67.97-.73,2.93.92,4.78,3.35,6.53,5.73.15.21-.15.73,0,1-2.74,0-3.86-3.23-6.66-3.84-1.11-.24-5.53-1.16-5.84-1.16h-26.5v-5s-11,0-11,0c.29-.69.75-1.3,1-2ZM108.63,11.41c-.61.61.23,3.46,1.5,4,1.18.33,2.82-1.31,2.5-2.5-.53-1.27-3.39-2.11-4-1.5Z" fill="#ff7300"/><path d="M66.63,99.41c-6.19-5.96-12.59-11.73-18.5-18l-13.12,14.87c-3.48.58-7.48-.35-10.88.12-1.83.26-3.58,2.11-4.85,1.89-4.12-.71-4.01-4.39-3.6-7.84,2.69-.92,5.83-2.19,7.46.95.57,1.1.36,2.76.53,2.96.29.37,7.85-.08,9.34-.09l15.13-15.87c1.41,1.26,2.6,2.77,3.99,4.04,5.49,5.05,10.17,10.73,15.51,15.95l-1,1Z" fill="#ff7300" stroke="#ff7300" stroke-miterlimit="10" stroke-width=".25"/><path d="M67.63,124.41l-.17,1.31-.83.69c-2.39-2.25-15.52-15.55-16.63-15.87-1.86-.54-15.99-.37-17.4.35-.88.45-2.69,3.25-2.87,4.21-.3,1.66.74,2.54.89,3.84.8,6.81-7.9,7.53-8.89,1.82-.07-.42,1.82-4.98,2.04-5.2.6-.61,2.97-.64,3.68-1.33.36-.35.42-1.59,1.12-2.34.93-.98,3.8-4.1,4.67-4.36,1.88-.55,14.53-.44,16.71.04,3.55.77,4.12,3.75,6.14,5.86,2.71,2.84,7,6.45,10.07,8.95.83.68,1.22,1.82,1.46,2.02ZM26.13,118.42c-2.01,1.56-2.01,2.43,0,3.99,2.01-1.56,2.01-2.43,0-3.99Z" fill="#ff7300"/><path d="M118.67,61.76l-.58-.54-.74-.83c2.22-2.76,11.58-12.26,12.11-14.64.82-3.65-.28-7.21-3.46-9.21l-51.38-.12c1.98-1.17,2.73-1.13,5.41-1.11l.59-.89c6.51-.19,11.06-.28,17.46.04,5.88.3,10.69-.81,16-1.09,2.67-.14,10.78-.39,12.57.52.55.28,4.69,4.61,4.85,5.15.46,1.59.34,6.96-.04,8.71-.84,3.86-4.35,4.59-6.33,6.67-1.33,1.41-4.91,5.71-6.47,7.34Z" fill="#ff7300"/><path d="M67.63,43.41c-11.04,11.61-21.04,24.74-31.98,36.52-1.76,1.9-4.07,4.35-6.01,5.99-1.4,1.18-1.82,1.91-4.01,1.49.94-3.3,3.95-5.04,6.02-7.48,11.18-13.16,23.59-25.59,34.98-38.52l.89.59.11,1.41Z" fill="#ff7f00"/><path d="M87.63,20.41c-.25.7-.71,1.31-1,2s.22,1.45-.97,2.51c-4.92,4.38-8.67-.95-11.65-4.45-5.35,1.43-10.88.85-16.37.93.12-.08-.02-.84,1.44-1.02,1.76-.22,3.76.18,5.57.03v-2c3.27-.09,7.5.46,10.52.02,2.54-.37,3.78-3.61,7.99-3.06,3.11.41,2.85,3.25,4.49,5.04ZM83.63,22.41c.61-.61-.23-3.46-1.5-4-1.18-.33-2.82,1.31-2.5,2.5.53,1.27,3.39,2.11,4,1.5Z" fill="#ff7300"/><path d="M67.63,124.41c3.37,2.8,5.39-3,6.5-3h30.5c.85,3.48-4.22,1.69-6.48,2-1.12.15.39-1.09.17-.02l-1.7.02h-21.5c-.57,0-3.41,5.47-5.06,5.97-1.71.49-2.63-2.22-3.44-2.97l.83-.69.17-1.31Z" fill="#ff7f00"/><path d="M95.63,41.41v2h-14.5c-2.93,3.04-5.79,6.27-8.52,9.48-1.56,1.84-3.38,5.21-4.93,6.88-1.89,2.04-5.03,1.59-3.05-.86,4.16-5.14,8.78-9.92,13.05-14.98.98-1.16.82-2.52.95-2.52h17Z" fill="#ff7f00"/><path d="M64.63,108.41l-1,1c-4.02-3.8-8.48-7.1-12.68-10.72-2-.56-2.53,1.12-3.18,1.78s-1.37-.11-2.2-.8l5.47-5.58c2.59-.48,1.81,2.07,2.58,2.83,3.61,3.56,7.23,7.95,11.01,11.49Z" fill="#ff7300"/><path d="M136.63,31.41c2.48,2.27,4.85-.23,7,.43,5.83,1.81,2.84,10.05-2.39,8.47-3.61-1.09-2.05-5.75-2.75-6.78-.15-.22-1.26-.04-1.85-1.12-.15-.27.15-.79,0-1Z" fill="#ff7300"/><path d="M72.48,24.57c.12,1.86-2.35.61-4.07,1.49-3.29,1.7-7.74,9.36-11.1,12.2-1.42,1.2-11.11,12.46-13.32,12.04,1.87-3.92,14.06-17.41,16.92-20.51.72-.78,1.39-1.55,1.98-2.19.72-.79,1.2-1.32,1.63-1.82.37-.43.76-.79.98-1.07.45-.57,5.56.12,6.99-.13Z" fill="#ff7300"/><path d="M72.63,91.41c-2.18.42-2.61-.31-4.01-1.49-5.04-4.26-9.49-9.68-13.99-14.5,1.67-.13,3.26,1,4.52,1.97,4.57,3.52,9.34,9.81,13.48,14.02Z" fill="#ff7f00"/><path d="M15.23,102.51c8.48-2.46,10.36,8.32,2.89,8.94-5.14.42-6.92-7.77-2.89-8.94ZM15.63,109.41c.43.45,4.57.09,5-1.5.56-2.1-1.23-3.27-2.51-4.49-2.27-.67-3.98,4.42-2.49,5.99Z" fill="#ff7300"/><path d="M134.17,13.45c5.17-1.48,7.47,5.56,2.87,6.9-3.93,1.14-6.23-5.93-2.87-6.9Z" fill="#ff7300"/><path d="M96.65,113.83c1.39-1.93,26.7,1.49,5.11,3.34l-17.94-.92.12.18c-3.71-3.17-7.14-6.8-10.65-10.21l1.07-1.13c.87,1.08,3.56,2.24,4.81,3.38,1.43,1.31,4.1,5.13,5.44,5.55,3.17.98,8.52-.73,12.04-.18Z" fill="#ff7f00"/><path d="M80.63,34.41l-.59.89c-2.68-.02-3.43-.06-5.41,1.11-2.99,1.77-4.7,4.58-7,7l-.11-1.41-.89-.59c1.87-2.12,2.83-5.42,5.63-6.87,2.78-.32,5.59-.04,8.37-.13Z" fill="#ff7300"/><rect x="55.63" y="66.41" width="15" height="2" fill="#ff7f00"/><path d="M64.63,108.41c3.24,3.03,7.14,5.59,10,9-5.37.39-7.82-4.99-11-8l1-1Z" fill="#ff7f00"/><path d="M121.55,41.49c.75.72.7,4.27.09,4.91-.44.45-4.57.08-5-1.5-.53-2,1.12-3.31,2.49-4.39.54.83,2.18.74,2.42.98Z" fill="#ff7f00"/><path d="M74.63,105.41l-1,1c-2.51-2.29-4.61-4.7-7-7l1-1c2.94,2.88,4.16,3.68,7,7Z" fill="#ff7f00"/><path d="M66.63,73.41c.11.11.11,2.89,0,3s-2.89.11-3,0-.11-2.89,0-3,2.89-.11,3,0Z" fill="#ff7f00"/><path d="M100.63,102.41c-.02-.09-.93-.15-1-1.45-.13-2.17-.49-14.94.06-15.49.14-.14,2.32-.56,3.31-1.19,3.58-2.28,3.46-5.72,5.13-8.87.89-1.68,3.45-2.02,2.48-5.49-.89-3.18-4.69.24-6.48.48-3.21.44-12.87.48-16.02.02-1.8-.26-2.39-2.03-3.95-2.06-2.5-.04-2.83,2.06-2.07,4.08.48,1.3,3.3,6.77,4.07,7.93,1.63,2.43,4.44,3.58,6.38,5.62.84,4.94-.8,11.77.1,16.4h-6c-.43-.43.44-7.44-.12-9.37-.37-1.28-2.93-2.85-3.89-4.11-5.95-7.8-6.86-18.33-1.85-26.89,2.09-3.58,9.29-8.09,13.39-8.61,6.07-.77,14.88,2.5,18.35,7.62,5.22,7.72,3.91,18.93-1.39,26.34-1.18,1.66-4.93,4.23-5.35,5.65-1.19,4.07,2.6,10.44-5.13,9.37Z" fill="#ffe000"/><path d="M92.63,102.41c-.9-4.63.74-11.46-.1-16.4-1.94-2.04-4.75-3.2-6.38-5.62-.78-1.16-3.59-6.63-4.07-7.93-.75-2.03-.42-4.13,2.07-4.08,1.57.03,2.15,1.8,3.95,2.06,3.16.46,12.82.41,16.02-.02,1.8-.24,5.59-3.66,6.48-.48.97,3.47-1.59,3.81-2.48,5.49-1.67,3.15-1.55,6.59-5.13,8.87-1,.63-3.17,1.05-3.31,1.19-.55.55-.19,13.31-.06,15.49.08,1.3.98,1.37,1,1.45.12.51-1.51,2.01-2,3-1.98-.15-5.54-.64-6-3ZM94.63,74.41c-2.29.03-4.54-.66-6,1.51.45,2.79,2.58,4.66,4.5,6.49,2.57-1.91,1.22-5.27,1.5-8ZM97.63,81.41c2.22.35,3.21-.33,4.48-2.02,3.42-4.58-.02-5.46-4.48-4.98v7Z" fill="#ba9a06"/><path d="M8.13,81.41c1.56-.45,2.58.31,3.5,1.5v.99s-2.5,1.5-2.5,1.5l-2.5-2.5c.53-.35,1.08-1.38,1.5-1.5Z" fill="#f9c14e"/><path d="M108.63,11.41c.61-.61,3.46.23,4,1.5.33,1.18-1.31,2.82-2.5,2.5-1.27-.53-2.11-3.39-1.5-4Z" fill="#f3c04d"/><path d="M26.13,118.42c2.01,1.56,2.01,2.43,0,3.99-2.01-1.56-2.01-2.43,0-3.99Z" fill="#f9c14e"/><path d="M83.63,22.41c-.61.61-3.46-.23-4-1.5-.33-1.18,1.31-2.82,2.5-2.5,1.27.53,2.11,3.39,1.5,4Z" fill="#f9c14e"/><path d="M94.63,74.41c-.28,2.73,1.07,6.09-1.5,8-1.92-1.82-4.05-3.7-4.5-6.49,1.46-2.17,3.71-1.48,6-1.51Z" fill="#f2dd54"/><path d="M97.63,81.41v-7c4.45-.48,7.9.4,4.48,4.98-1.26,1.69-2.25,2.38-4.48,2.02Z" fill="#f4e165"/><path d="M18.98,96.08c3.22,0,3.22-5,0-5s-3.22,5,0,5h0Z" fill="#f9c14e"/><path d="M9.27,85.79c3.22,0,3.22-5,0-5s-3.22,5,0,5h0Z" fill="#f9c14e"/><path d="M9.18,85.79c3.22,0,3.22-5,0-5s-3.22,5,0,5h0Z" fill="#f9c14e"/><path d="M9.18,85.84c3.22,0,3.22-5,0-5s-3.22,5,0,5h0Z" fill="#f9c14e"/><path d="M9.18,85.75c3.22,0,3.22-5,0-5s-3.22,5,0,5h0Z" fill="#f9c14e"/><path d="M9.13,85.7c3.22,0,3.22-5,0-5s-3.22,5,0,5h0Z" fill="#f9c14e"/><path d="M9.13,85.7c3.22,0,3.22-5,0-5s-3.22,5,0,5h0Z" fill="#f9c14e"/><path d="M9.13,85.7c3.22,0,3.22-5,0-5s-3.22,5,0,5h0Z" fill="#f9c14e"/><path d="M9.09,85.7c3.22,0,3.22-5,0-5s-3.22,5,0,5h0Z" fill="#f9c14e"/><path d="M9,85.66c3.22,0,3.22-5,0-5s-3.22,5,0,5h0Z" fill="#f9c14e"/><path d="M17.82,108.38c3.22,0,3.22-5,0-5s-3.22,5,0,5h0Z" fill="#f9c14e"/><path d="M19.7,108.25c.06-.11.12-.22.2-.32l-.39.51c.05-.06.1-.11.15-.15l-.51.39s.08-.05.13-.07l-.6.25s.06-.02.1-.02l-.66.09s.08,0,.13,0l-.66-.09s.08.02.12.03l-.6-.25s.06.03.08.05l-.51-.39s.03.03.05.05l-.39-.51s.03.04.04.06l-.25-.6s.02.04.02.07l-.09-.66s0,.05,0,.08l.09-.66s0,.05-.02.07l.25-.6s-.03.06-.05.09l.39-.51s-.05.05-.07.07l.51-.39c-.06.05-.12.08-.19.11l.6-.25c-.18.07-.39.11-.58.14l.66-.09c-.13.02-.26.02-.4,0l.66.09c-.08-.01-.15-.03-.23-.06l.6.25c-.07-.03-.14-.07-.21-.12l.51.39s-.09-.08-.13-.12l.39.51s-.07-.1-.09-.15l.25.6s-.03-.09-.04-.14l.09.66s0-.09,0-.14l-.09.66s.02-.09.03-.13l-.25.6s.05-.09.08-.14l-.39.51s.07-.08.11-.11l-.51.39c.05-.04.11-.07.16-.09l-.6.25c.05-.02.1-.03.16-.04l-.66.09c.05,0,.11,0,.16,0l-.66-.09c.06,0,.11.02.16.04l-.6-.25c.05.02.1.05.14.08l-.51-.39c.05.04.1.08.14.13l-.39-.51c.05.06.08.12.11.19l-.25-.6c.03.08.06.16.07.24l-.09-.66c0,.08,0,.15,0,.22l.09-.66c-.01.08-.03.16-.06.23l.25-.6c-.04.08-.08.16-.14.24l.39-.51c-.07.08-.14.15-.22.22l.51-.39c-.09.07-.19.13-.3.17l.6-.25s-.04.02-.06.02l-.6.25-.51.39-.39.51c-.18.29-.28.6-.3.93-.06.22-.06.44,0,.66,0,.23.06.44.17.63.06.21.17.4.32.55.18.27.41.49.7.64.26.11.57.28.87.34s.66.13.98.1c.26-.02.52-.06.78-.1.06-.01.11-.02.17-.04.3-.09.59-.21.86-.36.05-.03.1-.06.15-.09.2-.15.41-.3.59-.46.24-.21.43-.48.6-.75.35-.56.49-1.19.52-1.84,0-.06,0-.12,0-.18-.02-.26-.06-.53-.11-.78-.07-.32-.21-.63-.37-.91-.28-.51-.79-1.03-1.31-1.3-.27-.14-.56-.28-.87-.35-.26-.06-.52-.08-.78-.11-.07,0-.13,0-.2,0-.3.02-.64.04-.93.15-.62.23-.84.35-1.34.78-.26.22-.47.51-.65.81s-.3.61-.39.94c-.14.54-.18,1.1-.12,1.65l3.16-2.41h-.03c.2.07.4.16.6.24-.03-.01-.05-.03-.07-.04l.51.39s-.03-.02-.04-.04l.39.51s-.03-.04-.04-.07l.25.6s-.02-.05-.02-.08l.09.66s0-.05,0-.08l-.09.66s.01-.05.02-.08c.1-.33.12-.66.04-1-.02-.33-.11-.64-.3-.93-.16-.29-.37-.53-.64-.7-.24-.22-.52-.37-.85-.45l-.66-.09c-.45,0-.87.12-1.26.34l-.51.39c-.31.31-.52.68-.64,1.1-.1.25-.12.53-.11.8.02.12.03.24.05.36,0,.12.02.24.05.36.07.21.27.64.27.65.01.02.03.05.04.07l.39.51s.02.03.04.04l.51.39s.02.02.03.02c.2.13.43.2.66.28.44.12.89.12,1.33,0,.33-.08.61-.23.85-.45.27-.18.49-.41.64-.7.23-.39.34-.81.34-1.26-.03-.26-.05-.51-.02-.77l-.09.66c.02-.14.05-.28.11-.41l-.25.6c.04-.1.1-.2.17-.29l-.39.51c.05-.06.1-.11.16-.16l-.51.39c.06-.05.13-.09.2-.12l-.6.25c.08-.03.16-.05.25-.07l-.66.09c.1-.01.19-.01.29,0l-.66-.09c.1.01.19.04.28.08l-.6-.25c.08.03.15.08.22.13l-.51-.39c.07.05.13.12.19.18l-.39-.51c.05.07.1.15.13.24l-.25-.6c.04.09.06.19.08.29l-.09-.66c.01.11.01.22,0,.34l.09-.66c-.02.1-.04.2-.08.29l.25-.6c-.04.09-.09.18-.15.26l.39-.51c-.06.08-.13.14-.2.2l.51-.39c-.09.07-.19.13-.3.18l.6-.25c-.11.04-.22.08-.33.09l.66-.09c-.12.02-.23.02-.35,0l.66.09c-.11-.01-.21-.04-.31-.08l.6.25h-.03c-.2,1.51-.4,3.03-.6,4.56.26-.1.52-.2.77-.33.16-.08.3-.2.44-.31s.28-.2.4-.33c.02-.03.05-.05.07-.08.15-.19.31-.38.44-.58.14-.22.26-.57.34-.76.03-.07.05-.14.06-.22.11-.6.14-1.07-.02-1.68,0-.03-.02-.05-.03-.08-.08-.22-.18-.45-.28-.66-.03-.06-.07-.12-.11-.18-.33-.45-.64-.85-1.16-1.11-.21-.1-.49-.25-.75-.3-.14-.03-.53-.08-.68-.09-.02,0-.04,0-.05,0-.04,0-.07,0-.11,0-.24.03-.5.04-.73.1-.03,0-.06.02-.09.03-.22.08-.45.17-.66.28-.03.02-.06.04-.09.06-.13.09-.39.29-.52.4-.01.01-.03.02-.04.03-.02.02-.04.04-.06.07-.11.12-.31.39-.4.52-.01.01-.02.03-.03.04-.02.03-.03.06-.05.09-.25.54-.33.79-.38,1.39,0,.03,0,.05,0,.08,0,.02,0,.04,0,.06.02.22.05.49.1.71,0,.03.02.06.03.1.08.21.17.45.28.65.02.03.04.07.06.1.14.19.28.4.45.57.43.42.85.64,1.41.83.03.01.07.02.1.03.25.06.51.08.76.11.1.01.2.02.3,0,.3-.02.61-.07.9-.12.09-.02.19-.04.28-.06.26-.07.51-.2.76-.31.07-.03.12-.06.18-.1.44-.31.7-.53.99-.99.02-.03.03-.05.04-.08.04-.08.24-.53.26-.61,0-.02,0-.04.01-.06.02-.08.09-.6.09-.68,0-.02,0-.04,0-.06,0-.07-.07-.61-.09-.68,0-.02-.01-.04-.02-.06-.03-.07-.22-.55-.26-.61-.01-.02-.02-.03-.03-.05-.08-.12-.3-.43-.41-.52-.01-.01-.02-.02-.03-.03-.12-.1-.39-.32-.53-.4-.01,0-.03-.02-.04-.02-.21-.12-.44-.21-.67-.28-.02,0-.03,0-.05-.01-.19-.04-.49-.08-.69-.09-.03,0-.07,0-.1,0-.18,0-.51.06-.69.09-.02,0-.03,0-.05,0s-.03,0-.05.02c-.17.06-.46.18-.62.26-.13.07-.24.17-.36.26-.1.08-.24.17-.33.27s-.19.23-.27.33-.18.22-.26.34c-.05.08-.09.15-.13.23-.18.29-.28.6-.3.93-.07.33-.06.66.04,1,.08.33.23.61.45.85.18.27.41.49.7.64l.6.25c.44.12.89.12,1.33,0l.6-.25c.38-.22.67-.52.9-.9h0Z" fill="#f9c14e"/><path d="M26.29,122.95c3.22,0,3.22-5,0-5s-3.22,5,0,5h0Z" fill="#f9c14e"/><path d="M45.31,34.51c3.22,0,3.22-5,0-5s-3.22,5,0,5h0Z" fill="#f9c14e"/><path d="M81.89,23.1c3.22,0,3.22-5,0-5s-3.22,5,0,5h0Z" fill="#f9c14e"/><path d="M110.4,15.57c3.22,0,3.22-5,0-5s-3.22,5,0,5h0Z" fill="#f9c14e"/><path d="M135.98,19.14c3.22,0,3.22-5,0-5s-3.22,5,0,5h0Z" fill="#f9c14e"/><path d="M121.94,15.57c3.22,0,3.22-5,0-5s-3.22,5,0,5h0Z" fill="#f9c14e"/><path d="M158.55,75.35v1.58h-13.47v.11c-.09,2.68.4,4.61,1.48,5.78s2.59,1.76,4.56,1.76c.99,0,2.03-.16,3.11-.49,1.08-.33,2.24-.83,3.46-1.49v3.22c-1.18.5-2.32.88-3.42,1.13s-2.16.38-3.19.38c-2.94,0-5.24-.92-6.9-2.75s-2.48-4.36-2.48-7.58.81-5.65,2.43-7.52,3.79-2.81,6.49-2.81c2.41,0,4.31.85,5.7,2.55,1.39,1.7,2.13,3.75,2.22,6.15ZM155.44,74.4c-.14-1.36-.61-2.53-1.43-3.52-.82-.99-1.99-1.49-3.52-1.49s-2.73.52-3.7,1.55c-.97,1.03-1.5,2.19-1.59,3.48l10.24-.02Z" fill="#f77b0b"/><path d="M173.48,79.69c0,1.45.26,2.55.77,3.29s1.27,1.11,2.27,1.11h3.63v2.72h-3.94c-1.86,0-3.3-.62-4.32-1.85-1.02-1.24-1.53-2.99-1.53-5.26v-17.81h-4.99v-2.53h8.1v20.34Z" fill="#f77b0b"/><path d="M201.96,75.35v1.58h-13.47v.11c-.09,2.68.4,4.61,1.48,5.78s2.59,1.76,4.56,1.76c.99,0,2.03-.16,3.11-.49,1.08-.33,2.24-.83,3.46-1.49v3.22c-1.18.5-2.32.88-3.42,1.13s-2.16.38-3.19.38c-2.94,0-5.24-.92-6.9-2.75s-2.48-4.36-2.48-7.58.81-5.65,2.43-7.52,3.79-2.81,6.49-2.81c2.41,0,4.31.85,5.7,2.55,1.39,1.7,2.13,3.75,2.22,6.15ZM198.85,74.4c-.14-1.36-.61-2.53-1.43-3.52-.82-.99-1.99-1.49-3.52-1.49s-2.73.52-3.7,1.55c-.97,1.03-1.5,2.19-1.59,3.48l10.24-.02Z" fill="#f77b0b"/><path d="M222.67,85.8c-.83.5-1.69.88-2.58,1.13-.88.25-1.79.38-2.71.38-2.93,0-5.22-.91-6.87-2.74-1.65-1.83-2.48-4.36-2.48-7.59s.83-5.77,2.48-7.59c1.65-1.83,3.94-2.74,6.87-2.74.91,0,1.8.12,2.67.37s1.74.63,2.62,1.14v3.39c-.82-.76-1.65-1.31-2.48-1.65s-1.77-.51-2.81-.51c-1.95,0-3.45.66-4.5,1.97s-1.57,3.19-1.57,5.62.53,4.3,1.58,5.62c1.05,1.32,2.55,1.98,4.49,1.98,1.08,0,2.05-.17,2.91-.52.86-.35,1.65-.88,2.38-1.61v3.36Z" fill="#f77b0b"/><path d="M236.82,61.53v5.59h7.06v2.51h-7.06v10.69c0,1.45.26,2.47.79,3.04s1.45.86,2.77.86h3.5v2.58h-3.8c-2.33,0-3.98-.49-4.94-1.46-.96-.97-1.44-2.65-1.44-5.03v-10.69h-5.05v-2.51h5.05v-5.59h3.11Z" fill="#f77b0b"/><path d="M267.67,71.18c-.67-.54-1.34-.93-2.03-1.18-.69-.25-1.44-.37-2.26-.37-1.94,0-3.42.63-4.45,1.9s-1.54,3.09-1.54,5.48v9.79h-3.13v-19.69h3.13v3.85c.52-1.39,1.32-2.46,2.39-3.21s2.35-1.12,3.83-1.12c.77,0,1.48.1,2.15.3.66.2,1.3.51,1.91.93v3.3Z" fill="#f77b0b"/><path d="M275.19,67.19h7.96v17.1h6.17v2.51h-15.45v-2.51h6.17v-14.59h-4.85v-2.51ZM280.05,59.54h3.11v4.08h-3.11v-4.08Z" fill="#f77b0b"/><path d="M309.49,85.8c-.83.5-1.69.88-2.58,1.13-.88.25-1.79.38-2.71.38-2.93,0-5.22-.91-6.87-2.74-1.65-1.83-2.48-4.36-2.48-7.59s.83-5.77,2.48-7.59c1.65-1.83,3.94-2.74,6.87-2.74.91,0,1.8.12,2.67.37s1.74.63,2.62,1.14v3.39c-.82-.76-1.65-1.31-2.48-1.65s-1.77-.51-2.81-.51c-1.95,0-3.45.66-4.5,1.97s-1.57,3.19-1.57,5.62.53,4.3,1.58,5.62c1.05,1.32,2.55,1.98,4.49,1.98,1.08,0,2.05-.17,2.91-.52.86-.35,1.65-.88,2.38-1.61v3.36Z" fill="#f77b0b"/><path d="M331.16,75.57v11.23h-3.13v-2.92c-.66,1.17-1.5,2.04-2.51,2.59s-2.23.83-3.68.83c-1.93,0-3.46-.57-4.61-1.7-1.15-1.13-1.72-2.65-1.72-4.54,0-2.19.71-3.86,2.12-4.99s3.49-1.71,6.23-1.71h4.17v-.51c-.01-1.57-.39-2.71-1.15-3.42-.76-.71-1.96-1.06-3.62-1.06-1.06,0-2.13.16-3.21.47-1.08.32-2.14.78-3.16,1.39v-3.23c1.15-.46,2.25-.8,3.3-1.03s2.08-.34,3.07-.34c1.57,0,2.9.24,4.01.72s2.01,1.2,2.7,2.16c.43.59.73,1.31.91,2.17s.27,2.15.27,3.88ZM325.13,76.91h-1.03c-1.81,0-3.18.33-4.1.99s-1.38,1.65-1.38,2.96c0,1.18.34,2.1,1.03,2.76.69.66,1.64.98,2.86.98,1.71,0,3.06-.62,4.04-1.85.98-1.24,1.48-2.94,1.49-5.12v-.72h-2.91Z" fill="#f77b0b"/><path d="M338.27,79.35v-12.2h3.11v12.2c0,1.77.3,3.07.9,3.9.6.83,1.54,1.25,2.8,1.25,1.46,0,2.59-.54,3.36-1.61s1.17-2.61,1.17-4.61v-11.13h3.13v19.65h-3.13v-2.95c-.55,1.14-1.3,2-2.26,2.58s-2.06.88-3.34.88c-1.94,0-3.38-.66-4.33-1.98-.95-1.32-1.42-3.31-1.42-5.99Z" fill="#f77b0b"/><path d="M367.05,61.53v5.59h7.06v2.51h-7.06v10.69c0,1.45.26,2.47.79,3.04.53.57,1.45.86,2.77.86h3.5v2.58h-3.8c-2.33,0-3.98-.49-4.94-1.46-.96-.97-1.44-2.65-1.44-5.03v-10.69h-5.05v-2.51h5.05v-5.59h3.11Z" fill="#f77b0b"/><path d="M388.79,66.64c2.63,0,4.63.88,6.03,2.65s2.09,4.33,2.09,7.68-.69,5.93-2.08,7.69-3.4,2.65-6.03,2.65-4.63-.88-6.02-2.65-2.08-4.33-2.08-7.69.69-5.91,2.08-7.68,3.39-2.65,6.02-2.65ZM388.79,69.39c-1.58,0-2.77.64-3.58,1.92s-1.22,3.17-1.22,5.68.41,4.39,1.22,5.67,2.01,1.92,3.58,1.92,2.79-.64,3.6-1.92,1.22-3.17,1.22-5.67-.41-4.4-1.22-5.68-2.01-1.92-3.6-1.92Z" fill="#f77b0b"/><path d="M411.51,69.12c.38-.84.87-1.47,1.46-1.87s1.3-.61,2.14-.61c1.52,0,2.59.61,3.22,1.84.63,1.22.94,3.53.94,6.92v11.41h-2.84v-11.27c0-2.78-.15-4.5-.45-5.18-.3-.67-.84-1.01-1.63-1.01-.9,0-1.52.36-1.85,1.08-.33.72-.5,2.42-.5,5.11v11.27h-2.84v-11.27c0-2.81-.16-4.55-.48-5.2s-.9-.98-1.73-.98-1.39.36-1.72,1.08-.48,2.42-.48,5.11v11.27h-2.82v-19.69h2.82v1.69c.37-.7.84-1.24,1.39-1.61s1.19-.55,1.9-.55c.86,0,1.57.21,2.14.62s1.01,1.03,1.33,1.86Z" fill="#f77b0b"/><path d="M439.69,75.57v11.23h-3.13v-2.92c-.67,1.17-1.5,2.04-2.51,2.59-1.01.56-2.23.83-3.68.83-1.93,0-3.46-.57-4.61-1.7s-1.72-2.65-1.72-4.54c0-2.19.71-3.86,2.12-4.99s3.49-1.71,6.23-1.71h4.17v-.51c-.01-1.57-.39-2.71-1.15-3.42s-1.96-1.06-3.62-1.06c-1.06,0-2.13.16-3.21.47-1.08.32-2.14.78-3.16,1.39v-3.23c1.15-.46,2.25-.8,3.3-1.03,1.05-.23,2.08-.34,3.07-.34,1.57,0,2.9.24,4.01.72,1.11.48,2.01,1.2,2.7,2.16.43.59.73,1.31.91,2.17.18.86.27,2.15.27,3.88ZM433.66,76.91h-1.03c-1.81,0-3.18.33-4.1.99-.92.66-1.38,1.65-1.38,2.96,0,1.18.34,2.1,1.03,2.76s1.64.98,2.86.98c1.71,0,3.06-.62,4.04-1.85.98-1.24,1.48-2.94,1.49-5.12v-.72h-2.91Z" fill="#f77b0b"/><path d="M453.87,61.53v5.59h7.06v2.51h-7.06v10.69c0,1.45.26,2.47.79,3.04s1.45.86,2.77.86h3.5v2.58h-3.8c-2.33,0-3.98-.49-4.94-1.46s-1.44-2.65-1.44-5.03v-10.69h-5.05v-2.51h5.05v-5.59h3.11Z" fill="#f77b0b"/><path d="M470.54,67.19h7.96v17.1h6.17v2.51h-15.45v-2.51h6.17v-14.59h-4.85v-2.51ZM475.39,59.54h3.11v4.08h-3.11v-4.08Z" fill="#f77b0b"/><path d="M504.84,85.8c-.83.5-1.69.88-2.58,1.13-.88.25-1.79.38-2.71.38-2.93,0-5.22-.91-6.87-2.74-1.65-1.83-2.48-4.36-2.48-7.59s.83-5.77,2.48-7.59c1.65-1.83,3.94-2.74,6.87-2.74.91,0,1.8.12,2.67.37.87.25,1.74.63,2.62,1.14v3.39c-.82-.76-1.65-1.31-2.48-1.65s-1.77-.51-2.81-.51c-1.95,0-3.45.66-4.5,1.97s-1.57,3.19-1.57,5.62.53,4.3,1.58,5.62,2.55,1.98,4.49,1.98c1.08,0,2.05-.17,2.91-.52s1.65-.88,2.38-1.61v3.36Z" fill="#f77b0b"/><path d="M526.54,85.8c-.83.5-1.69.88-2.58,1.13-.88.25-1.79.38-2.71.38-2.93,0-5.22-.91-6.87-2.74-1.65-1.83-2.48-4.36-2.48-7.59s.83-5.77,2.48-7.59c1.65-1.83,3.94-2.74,6.87-2.74.91,0,1.8.12,2.67.37.87.25,1.74.63,2.62,1.14v3.39c-.82-.76-1.65-1.31-2.48-1.65s-1.77-.51-2.81-.51c-1.95,0-3.45.66-4.5,1.97s-1.57,3.19-1.57,5.62.53,4.3,1.58,5.62,2.55,1.98,4.49,1.98c1.08,0,2.05-.17,2.91-.52s1.65-.88,2.38-1.61v3.36Z" fill="#f77b0b"/><path d="M548.08,74.61v12.2h-3.13v-12.2c0-1.77-.3-3.07-.9-3.9-.6-.83-1.53-1.25-2.81-1.25-1.45,0-2.57.54-3.36,1.61s-1.17,2.61-1.17,4.61v11.13h-3.11v-27.35h3.11v10.62c.55-1.12,1.3-1.98,2.25-2.56.95-.58,2.07-.87,3.36-.87,1.93,0,3.37.66,4.32,1.98.95,1.32,1.43,3.31,1.43,5.99Z" fill="#f77b0b"/><path d="M557.36,67.19h7.96v17.1h6.17v2.51h-15.45v-2.51h6.17v-14.59h-4.85v-2.51ZM562.21,59.54h3.11v4.08h-3.11v-4.08Z" fill="#f77b0b"/><path d="M585.88,79.69c0,1.45.26,2.55.77,3.29.51.74,1.27,1.11,2.27,1.11h3.63v2.72h-3.94c-1.86,0-3.3-.62-4.32-1.85-1.02-1.24-1.53-2.99-1.53-5.26v-17.81h-4.99v-2.53h8.1v20.34Z" fill="#f77b0b"/><path d="M614.36,75.35v1.58h-13.47v.11c-.09,2.68.4,4.61,1.48,5.78,1.08,1.17,2.59,1.76,4.55,1.76.99,0,2.03-.16,3.11-.49,1.08-.33,2.24-.83,3.46-1.49v3.22c-1.18.5-2.32.88-3.42,1.13s-2.16.38-3.19.38c-2.94,0-5.24-.92-6.9-2.75s-2.48-4.36-2.48-7.58.81-5.65,2.43-7.52c1.62-1.88,3.79-2.81,6.49-2.81,2.41,0,4.31.85,5.7,2.55s2.13,3.75,2.22,6.15ZM611.25,74.4c-.14-1.36-.61-2.53-1.43-3.52-.82-.99-1.99-1.49-3.52-1.49s-2.73.52-3.7,1.55c-.97,1.03-1.5,2.19-1.59,3.48l10.24-.02Z" fill="#f77b0b"/></svg>